<svg width="40" height="41" viewBox="0 0 40 41" fill="none" xmlns="http://www.w3.org/2000/svg">
<g clip-path="url(#clip0_482_9786)">
<path d="M20 40.8613C31.0457 40.8613 40 31.907 40 20.8613C40 9.81563 31.0457 0.861328 20 0.861328C8.9543 0.861328 0 9.81563 0 20.8613C0 31.907 8.9543 40.8613 20 40.8613Z" fill="#F0F0F0"/>
<path d="M40.0005 20.8615C40.0005 12.2622 34.573 4.93133 26.957 2.10547V39.6176C34.573 36.7916 40.0005 29.4608 40.0005 20.8615Z" fill="#D80027"/>
<path d="M0 20.8615C0 29.4608 5.4275 36.7916 13.0435 39.6175V2.10547C5.4275 4.93133 0 12.2622 0 20.8615Z" fill="#6DA544"/>
</g>
<defs>
<clipPath id="clip0_482_9786">
<rect width="40" height="40" fill="white" transform="translate(0 0.861328)"/>
</clipPath>
</defs>
</svg>
